<?xml version="1.0" standalone="no"?>
<!DOCTYPE svg PUBLIC "-//W3C//DTD SVG 1.1//EN" "http://www.w3.org/Graphics/SVG/1.1/DTD/svg11.dtd" >
<svg xmlns="http://www.w3.org/2000/svg">
<metadata>Generated by IcoMoon</metadata>
<defs>
<font id="icomoon" horiz-adv-x="1024">
<font-face units-per-em="1024" ascent="960" descent="-64" />
<missing-glyph horiz-adv-x="1024" />
<glyph unicode="&#x20;" horiz-adv-x="512" d="" />
<glyph unicode="&#xe600;" glyph-name="uniE600" horiz-adv-x="1025" d="M934 280v416q0 67-47.5 114.5t-114.5 47.5h-520q-67 0-114.5-47.5t-47.5-114.5v-520q0-67 47.5-114.5t114.5-47.5h520q39 0 73 17.5t57 48 29 68.5q-15 6-32.5 14t-48.5 22l-62 26q-31 14-64.5 29t-64.5 29-54 25q-59-71-122-107t-146-36q-87 0-140 46.5t-46 113.5q2 16 7 31.5t14.5 33 26 31.5 39 24.5 56.5 15 75 0.5q22-2 43-6l33-5q12-2 34.5-8.5t28-8 34.5-11.5 33-11q30 54 47 115h-327v32h162v59h-198v35h198v84q0 2 0.5 4t5 6 10.5 4h81v-98h211v-35h-211v-59h172q-23-95-70-175 23-8 92-30t128-40zM324 206q-44 0-74.5 12t-43 31-17 36-2.5 31q4 18 16.5 34t37.5 28.5 57 12.5q108 0 234-62-95-123-208-123z" />
<glyph unicode="&#xe601;" glyph-name="1" d="M512 960c-282.752 0-512-229.248-512-512s229.248-512 512-512c282.752 0 512 229.248 512 512s-229.248 512-512 512zM512-32c-265.088 0-480 214.912-480 480s214.912 480 480 480 480-214.912 480-480-214.912-480-480-480zM484.384 576.256c8.64-58.496 15.136-128.928 19.488-211.264h16.256c2.112 69.312 9.76 144.064 22.752 224.256 4.32 39.008 7.552 69.312 9.76 91.008 4.32 15.136 6.496 24.864 6.496 29.248-2.208 36.8-17.376 56.32-45.504 58.496-30.368-2.176-46.624-21.696-48.736-58.496 0-6.496 1.056-21.696 3.264-45.504 6.464-34.688 11.84-63.936 16.224-87.744zM576 224c0-35.346-28.654-64-64-64s-64 28.654-64 64c0 35.346 28.654 64 64 64s64-28.654 64-64z" />
<glyph unicode="&#xe602;" glyph-name="heart" d="M751.936 853.12c157.632 0 240.064-137.696 240.064-273.664 0-188.288-330.656-437.216-478.464-530.848-148.672 94.4-481.536 344.768-481.536 530.848 0 135.968 83.488 273.664 243.104 273.664 142.080 0 206.816-132.384 209.472-137.952l30.912-65.888 27.648 67.328c0.544 1.376 57.792 136.512 208.8 136.512zM751.936 885.12c-174.208 0-238.432-156.352-238.432-156.352s-73.344 156.352-238.4 156.352c-180.352 0-275.104-152.832-275.104-305.664 0-253.696 513.504-568.576 513.504-568.576s510.496 311.808 510.496 568.576c0 155.872-97.824 305.664-272.064 305.664v0z" />
<glyph unicode="&#xe603;" glyph-name="shoppingcart" d="M417.952 15.52c0-44.2-35.832-80.032-80.032-80.032s-80.032 35.832-80.032 80.032c0 44.2 35.832 80.032 80.032 80.032s80.032-35.832 80.032-80.032zM866.688 15.52c0-44.2-35.832-80.032-80.032-80.032s-80.032 35.832-80.032 80.032c0 44.2 35.832 80.032 80.032 80.032s80.032-35.832 80.032-80.032zM910.080 159.136l-599.456 6.24c-31.68-1.76-55.872 52.672-57.92 69.632l-59.968 441.92-33.92 202.976c-6.464 53.12-30.592 76.16-75.936 77.44l-43.072 3.136c-20.16 0-39.936 0.064-39.936-20.096 0-20.128 16.352-23.648 36.512-23.648l46.496-1.984c20.416-0.384 30.368-18.592 34.272-45.44l35.232-203.744 61.92-435.616c7.36-65.088 49.216-101.952 105.312-101.952h590.464c20.192 0 36.8 1.312 36.8 16 0.032 12.8-16.608 15.136-36.8 15.136zM996.32 832.448c-18.656 21.088-44.288 30.336-72.192 30.336l-632.16 1.344c-20.16 0-36.512 3.040-36.512-17.12s16.352-16.416 36.512-16.416l639.2-1.888c6.912 0 38.368-10.304 50.368-31.328 11.488-20.064 12.384-47.232 8.928-66.816l-58.816-332.16c-17.152-30.496-55.584-44-73.76-44.128l-490.656-35.552c-20.064-1.504-39.872 0.192-38.4-19.904 1.408-19.232 38.176-14.144 39.104-14.080l492.608 33.312c52.608 0 98.848 40.992 105.024 92.192l57.568 329.056c4.256 35.168-5.504 69.088-26.816 93.152z" />
<glyph unicode="&#xe604;" glyph-name="headset" d="M890.336 607.072c-30.432 181.632-187.68 320.288-377.952 320.288s-347.52-138.624-377.984-320.256c-74.976-5.024-134.4-66.784-134.4-143.040v-160c0-79.488 64.48-144 144-144s144 64.512 144 144v160c0 71.776-52.64 130.784-121.312 141.728 29.536 164.512 172.672 289.568 345.696 289.568 172.992 0 316.128-125.056 345.696-289.536-68.896-10.72-121.856-69.824-121.856-141.76v-160c0-71.936 52.992-131.072 122.016-141.76-11.968-52.64-42.592-162.752-90.048-163.2 0-13.44 0-28.512 0-31.552 73.216 0.128 109.248 133.568 121.792 193.504 74.912 5.056 133.984 66.816 133.984 143.008v160c-0.064 76.064-58.88 137.696-133.632 143.008zM256 464.064v-160c0-61.824-50.144-112-112-112s-112 50.176-112 112v160c0 61.856 50.144 112 112 112s112-50.112 112-112zM991.904 304.064c0-61.824-49.824-112-111.68-112s-112 50.176-112 112v160c0 61.856 50.144 112 112 112 61.888 0 111.68-50.144 111.68-112v-160z" />
<glyph unicode="&#xe605;" glyph-name="setting" d="M960 576h-52.256c-10.304 31.936-24.64 62.016-41.952 90.016l30.88 30.848c24.96 25.024 24.96 65.536 0 90.528l-67.872 67.904c-12.512 12.512-28.864 18.752-45.248 18.752-16.416 0-32.768-6.24-45.28-18.752l-37.088-37.088c-29.248 14.944-60.448 26.464-93.184 34.208v43.584c0 35.328-28.64 64-64 64h-96c-35.328 0-64-28.672-64-64v-52.288c-31.936-10.304-61.984-24.608-90.016-41.92l-30.848 30.88c-12.512 12.48-28.896 18.72-45.248 18.72s-32.768-6.24-45.248-18.72l-67.936-67.872c-24.992-24.992-24.992-65.536 0-90.528l37.088-37.12c-14.912-29.216-26.464-60.416-34.208-93.152h-43.584c-35.328 0-64-28.672-64-64v-96c0-35.328 28.672-64 64-64h52.256c10.336-31.936 24.608-62.016 41.952-90.016l-30.88-30.88c-24.96-24.992-24.96-65.504 0-90.496l67.872-67.872c12.512-12.512 28.864-18.752 45.28-18.752 16.384 0 32.736 6.24 45.248 18.752l37.056 37.088c29.248-14.976 60.48-26.464 93.184-34.208v-43.552c0-35.36 28.672-64 64-64l96.032-0.064c35.328 0.032 64 28.672 64 64.032v52.256c31.936 10.304 62.016 24.64 90.048 41.952l30.848-30.88c12.512-12.512 28.864-18.752 45.248-18.752 16.416 0 32.768 6.24 45.248 18.752l67.904 67.872c24.96 24.992 24.96 65.504 0 90.496l-37.12 37.088c15.008 29.248 26.496 60.448 34.24 93.184h43.584c35.328 0 64 28.672 64 64v96c0 35.328-28.672 64-64 64zM992 416c0-17.632-14.368-32-32-32h-68.864l-5.824-24.64c-7.136-30.016-17.76-58.912-31.584-85.984l-10.624-20.736 16.48-16.448 37.088-37.12c12.48-12.48 12.48-32.768 0.032-45.248l-67.904-67.872c-6.016-6.016-14.080-9.376-22.624-9.376s-16.608 3.328-22.624 9.376l-30.848 30.88-17.952 17.888-21.504-13.28c-26.752-16.544-54.688-29.536-83.104-38.72l-22.144-7.2v-75.52c0-17.632-14.368-32-32-32l-96 0.032c-17.632 0-32 14.336-32 32v68.864l-24.64 5.824c-30.016 7.104-58.912 17.728-85.984 31.552l-20.704 10.624-16.512-16.48-37.056-37.088c-6.048-6.016-14.080-9.376-22.624-9.376-8.576 0-16.64 3.328-22.656 9.376l-67.872 67.872c-12.48 12.512-12.48 32.768 0 45.248l48.8 48.768-13.312 21.568c-16.512 26.72-29.504 54.656-38.688 83.104l-7.2 22.112h-75.552c-17.632 0-32 14.368-32 32v96c0 17.632 14.368 32 32 32h68.896l5.856 24.64c7.072 29.984 17.696 58.88 31.552 85.952l10.624 20.736-53.568 53.6c-12.48 12.48-12.48 32.768 0 45.28l67.904 67.872c6.016 5.984 14.048 9.312 22.624 9.312s16.576-3.328 22.624-9.344l48.768-48.8 21.536 13.312c26.752 16.544 54.688 29.568 83.040 38.688l22.144 7.168v75.584c0 17.632 14.368 32 32 32h96c17.664 0 32-14.368 32-32v-68.896l24.64-5.824c30.016-7.104 58.944-17.728 86.016-31.584l20.704-10.624 53.568 53.568c6.016 6.048 14.080 9.376 22.656 9.376 8.544 0 16.576-3.328 22.624-9.376l67.872-67.872c12.448-12.48 12.448-32.768 0-45.28l-48.8-48.736 13.312-21.536c16.544-26.752 29.536-54.688 38.688-83.040l7.168-22.176h75.552c17.632 0 32-14.368 32-32v-96zM512 672c-123.68 0-224-100.288-224-224s100.32-224 224-224c123.744 0 224 100.288 224 224s-100.256 224-224 224zM512 256c-106.016 0-192 85.984-192 192s86.016 192 192 192c106.048 0 192-85.984 192-192s-85.952-192-192-192zM512 544c-52.992 0-96-42.976-96-96 0-52.992 43.008-96 96-96 53.024 0 96 43.008 96 96 0 53.024-42.976 96-96 96zM512 384c-35.328 0-64 28.672-64 64s28.672 64 64 64c35.36 0 64-28.672 64-64s-28.64-64-64-64z" />
<glyph unicode="&#xe606;" glyph-name="help" d="M512 960c-282.752 0-512-229.216-512-512s229.248-512 512-512 512 229.216 512 512-229.248 512-512 512zM512-32c-265.088 0-480 214.912-480 480s214.912 480 480 480 480-214.912 480-480-214.912-480-480-480zM480 224h32v-64h-32v64zM523.488 736c-81.536 0.256-147.2-51.456-171.008-159.616h30.624c23.808 88 77.856 133.888 140.384 129.376 78.944-5.664 110.464-43.008 116.512-130.496 2.944-42.432-21.184-84.352-83.488-126.496-49.504-36.672-76.128-80.672-76.128-132v-28.064h31.552v25.312c0 45.824 30.816 85.952 69.312 111.616 76.992 45.824 90.048 101.12 90.688 152.384 1.024 84.736-45.632 157.664-148.448 157.984z" />
<glyph unicode="&#xe607;" glyph-name="share" d="M832 256c-52.672 0-98.976-25.792-128.128-65.024l-390.816 180.928c4.064 14.080 6.944 28.704 6.944 44.096 0 28.416-8.032 54.688-20.992 77.824l455.712 189.888c28.608-26.944 66.912-43.712 109.28-43.712 88.384 0 160 71.648 160 160s-71.616 160-160 160-160-71.648-160-160c0-33.824 10.624-65.056 28.512-90.912l-452.352-188.448c-29.344 33.632-72 55.36-120.16 55.36-88.352 0-160-71.648-160-160s71.648-160 160-160c61.568 0 114.368 35.168 141.12 86.144l386.176-178.816c-9.536-20.512-15.296-43.168-15.296-67.328 0-88.352 71.616-160 160-160s160 71.648 160 160-71.616 160-160 160zM864 928c70.688 0 128-57.312 128-128s-57.312-128-128-128-128 57.312-128 128 57.312 128 128 128zM160 288c-70.688 0-128 57.312-128 128s57.312 128 128 128c40.224 0 75.68-18.976 99.2-47.968l6.656-16.032 3.584 1.504c11.52-19.232 18.56-41.472 18.56-65.504 0-70.688-57.312-128-128-128zM832-32c-70.688 0-128 57.312-128 128s57.312 128 128 128 128-57.312 128-128-57.312-128-128-128z" />
<glyph unicode="&#xe608;" glyph-name="advice" d="M312.864 249.184l102.272 33.536 452.224 452.288-22.624 22.624-429.728-429.792-22.656 22.624 429.76 429.824-22.624 22.624-452.224-452.288zM890.656 758.304l22.080 22.112 0.032-0.032 22.624 22.624c21.056 21.056 36.896 53.952 11.488 79.36-26.528 26.528-58.304 9.568-79.36-11.488l-22.624-22.624 0.352-0.352-22.112-22.080 67.52-67.52zM901.472 859.584c6.24 6.24 16.384 6.24 22.624 0s6.24-16.384 0-22.624l-33.728-33.728-22.624 22.624 33.728 33.728zM938.112 731.712l-23.296-23.296c48.64-75.040 77.184-164.32 77.184-260.416 0-265.088-214.912-480-480-480s-480 214.912-480 480 214.912 480 480 480c87.744 0 169.76-23.936 240.544-65.056l23.296 23.264c-77.152 46.528-167.2 73.792-263.84 73.792-282.752 0-512-229.216-512-512s229.248-512 512-512 512 229.216 512 512c0 104.96-31.68 202.496-85.888 283.712z" />
<glyph unicode="&#xe609;" glyph-name="userAgreement" d="M280.864 281.184l102.272 33.536 452.224 452.288-22.624 22.624-429.728-429.792-22.656 22.624 429.76 429.824-22.624 22.624-452.224-452.288zM858.656 790.336l22.080 22.112 0.032-0.032 22.624 22.624c21.056 21.056 36.896 53.952 11.488 79.36-26.528 26.528-58.304 9.568-79.36-11.488l-22.624-22.624 0.352-0.352-22.112-22.080 67.52-67.52zM869.472 891.616c6.24 6.24 16.384 6.24 22.624 0s6.24-16.384 0-22.624l-33.728-33.728-22.624 22.624 33.728 33.728zM960 608v-520c0-66.24-53.76-120-120-120h-656c-66.24 0-120 53.76-120 120v624c0 66.272 53.76 120 120 120h392l32 32h-448c-70.688 0-128-57.312-128-128v-672c0-70.688 57.312-128 128-128h704c70.688 0 128 57.312 128 128v576l-32-32zM448 288h384v-32h-384v32zM192 160h640v-32h-640v32z" />
<glyph unicode="&#xe60a;" glyph-name="edit" d="M318.336 75.808l-35.808 19.68 374.592 680.064-35.84 19.68-394.176-715.552-6.080-136.672 113.504 77.504 394.176 715.552-35.808 19.68zM773.92 945.12c-42.016 23.168-74.976-8.96-93.312-42.272l-19.712-35.744 0.544-0.384-19.264-34.944 106.816-58.848 19.264 35.008 0.064-0.032 19.712 35.776c18.304 33.312 26.080 79.296-14.112 101.44zM732.672 828l-35.744 19.648 29.376 53.376c5.44 9.888 17.856 13.44 27.744 8s13.472-17.824 8-27.712l-29.376-53.312z" />
<glyph unicode="&#xe60b;" glyph-name="delete" d="M976 768h-240v96c0 53.024-42.976 96-96 96h-256c-53.024 0-96-42.976-96-96v-96h-240c-8.832 0-16-7.168-16-16s7.168-16 16-16h928c8.832 0 16 7.168 16 16s-7.168 16-16 16zM325.888 768c-3.584 10.048-5.888 52.704-5.888 64 0 53.024 42.976 96 96 96h192c53.024 0 96-42.976 96-96 0-11.296-2.304-53.952-5.888-64h-372.224zM768 64c0-53.024-42.976-96-96-96h-320c-53.024 0-96 42.976-96 96l-64 666.112c-11.296 0-21.952 2.336-32 5.888l64-704c0-53.024 42.976-96 96-96h384c53.024 0 96 42.976 96 96l64 704c-10.048-3.552-20.704-5.888-32-5.888l-64-666.112zM656 64c8.832 0 16 7.168 16 16l32 544c0 8.832-7.168 16-16 16s-16-7.168-16-16l-32-544c0-8.832 7.168-16 16-16zM400 64c8.832 0 16 7.168 16 16l-32 544c0 8.832-7.168 16-16 16s-16-7.168-16-16l32-544c0-8.832 7.168-16 16-16zM528 64c8.832 0 16 7.168 16 16v544c0 8.832-7.168 16-16 16s-16-7.168-16-16v-544c0-8.832 7.168-16 16-16z" />
<glyph unicode="&#xe60c;" glyph-name="arrowRight" d="M272-64h-32l512 512-512 512h32l512-512z" />
<glyph unicode="&#xe60d;" glyph-name="arrowLeft" d="M752-64h32l-512 512 512 512h-32l-512-512z" />
<glyph unicode="&#xe60e;" glyph-name="back" d="M48 64.064v416h-32v-448c0-35.328 28.672-64 64-64h928v32h-896c-35.328 0-64 28.64-64 64zM336 192.064h64v-32h-64v32zM144 192.064h128v-32h-128v32zM752 736.064h-563.040l146.912 191.872h-31.36l-160.512-208.256 160.8-207.328h30.752l-148.48 191.68h564.928c123.488 0 224-100.512 224-224v-64c0-123.488-100.512-224-224-224h-160v-32h160c141.376 0 256 114.624 256 256v64c0 141.408-114.624 256.032-256 256.032zM464 192.064h64v-32h-64v32z" />
<glyph unicode="&#xe60f;" glyph-name="contactUs" d="M240 560c-44.192 0-80-35.808-80-80s35.808-80 80-80 80 35.808 80 80-35.808 80-80 80zM240 432c-26.496 0-48 21.504-48 48s21.504 48 48 48 48-21.504 48-48-21.504-48-48-48zM496 560c-44.192 0-80-35.808-80-80s35.808-80 80-80 80 35.808 80 80-35.808 80-80 80zM496 432c-26.496 0-48 21.504-48 48s21.504 48 48 48 48-21.504 48-48-21.504-48-48-48zM752 400c44.192 0 80 35.808 80 80s-35.808 80-80 80-80-35.808-80-80 35.808-80 80-80zM752 528c26.496 0 48-21.504 48-48s-21.504-48-48-48-48 21.504-48 48 21.504 48 48 48zM1024 179.68c0 10.080-0.352 92.832-32 124.32l-13.216 13.216c28.8 55.616 45.216 117.12 45.216 182.048 0 245.632-229.248 444.736-512 444.736s-512-199.104-512-444.704c0-105.6 42.592-202.464 113.376-278.784-1.888-1.408-3.776-2.656-5.6-4.224 0 0 20.224-67.36 0-134.72-13.856-46.24-8.704-63.936 13.344-63.936 10.048 0 23.648 3.68 40.576 10.016 44.704 16.736 63.328 59.712 136.384 59.712 8.192 0 16.992-0.544 26.624-1.696 58.048-19.84 121.12-31.136 187.328-31.136 24.64 0 48.672 2.016 72.384 4.928l15.776-16.64c45.728-48.192 112.704-75.84 183.84-75.84 27.68 0 55.136 4.32 81.568 12.768 1.824 0.192 3.52 0.288 5.12 0.288 8.928 0 12-2.208 20.256-8.16 6.112-4.448 13.76-9.92 24.128-13.824 11.328-4.256 19.84-6.112 27.712-6.112 13.44 0 24.96 5.568 32.48 15.68 13.6 18.208 6.592 41.536 3.584 51.456-4.928 16.544-0.48 34.432 0.032 36.448 29.152 36.064 45.088 79.648 45.088 124.16zM512 86.56c-60.32 0-119.872 9.92-176.928 29.408l-3.2 1.088-3.36 0.416c-10.56 1.248-20.8 1.92-30.432 1.92-57.696 0-88.928-22.944-114.080-41.376-11.712-8.608-21.856-16-33.536-20.384-7.232-2.72-12.8-4.544-17.12-5.728 0.896 4.96 2.464 11.616 5.12 20.48 15.488 51.584 10.304 102.528 5.12 130.752l17.472 13.088-24.16 26.048c-68.64 73.92-104.896 162.784-104.896 257.024 0 227.552 215.328 412.704 480 412.704s480-185.152 480-412.704c0-153.088-97.696-286.688-242.048-357.952-40.576-17.44-82.464-31.488-122.432-42.176-37.088-7.936-75.648-12.608-115.52-12.608zM945.824 66.304c0.8-0.608 1.632-0.928 2.368-1.6 0 0-8.192-27.36 0-54.752 5.664-18.784 3.552-25.984-5.408-25.984-4.096 0-9.6 1.504-16.48 4.064-18.112 6.848-25.984 24.032-55.616 24.032-3.616 0-7.616-0.288-12-0.832-23.2-7.776-48.32-12.224-74.688-12.224-64.672 0-122.496 25.664-160.64 65.888 2.176 0.576 4.256 1.376 6.4 1.984 140.032 28.672 257.728 107.072 327.072 212.736 22.080-28.608 35.168-62.88 35.168-99.936 0-42.976-17.344-82.368-46.176-113.376z" />
<glyph unicode="&#xe610;" glyph-name="message" d="M224.704 399.36h576v-32h-576v32zM224.704 623.36h480v-32h-480v32zM512 911.36c-282.88 0-512.192-199.2-512.192-444.832 0-105.664 42.592-202.592 113.44-278.912-1.888-1.44-3.808-2.688-5.632-4.256 0 0 20.224-67.36 0-134.752-13.888-46.24-8.704-64 13.344-64 10.080 0 23.68 3.68 40.576 10.048 44.768 16.736 63.36 59.744 136.48 59.744 8.192 0 17.056-0.512 26.72-1.696 58.016-19.872 121.088-31.136 187.264-31.136 282.88 0 512.192 199.2 512.192 444.896 0 245.728-229.312 444.896-512.192 444.896zM512 53.632c-60.48 0-119.968 9.888-176.896 29.376l-3.168 1.12-3.328 0.384c-10.624 1.312-20.864 1.952-30.56 1.952-57.696 0-88.992-22.944-114.112-41.376-11.744-8.576-21.856-16-33.632-20.448-7.232-2.688-12.8-4.512-17.12-5.696 0.896 4.928 2.496 11.616 5.152 20.512 15.488 51.68 10.272 102.752 5.088 130.944l17.344 13.184-24.032 25.888c-68.64 73.888-104.896 162.816-104.896 257.088-0.032 227.616 215.392 412.8 480.16 412.8s480.192-185.184 480.192-412.832-215.424-412.896-480.192-412.896z" />
<glyph unicode="&#xe611;" glyph-name="contactCustomer" d="M511.712 941.504c-282.944 0-512.288-199.424-512.288-445.472 0-143.84 78.784-271.296 200.576-352.672l-0.096-188.864 167.776 114.24c45.728-11.68 93.984-18.176 144.032-18.176 282.944 0 512.288 199.424 512.288 445.472s-229.344 445.472-512.288 445.472zM271.968 398.56c-44.064 0-79.808 35.744-79.808 79.84s35.744 79.808 79.808 79.808 79.808-35.712 79.808-79.808-35.744-79.84-79.808-79.84zM528.352 398.56c-44.064 0-79.808 35.744-79.808 79.84s35.744 79.808 79.808 79.808 79.808-35.712 79.808-79.808-35.744-79.84-79.808-79.84zM784.608 398.56c-44.064 0-79.808 35.744-79.808 79.84s35.744 79.808 79.808 79.808 79.808-35.712 79.808-79.808-35.744-79.84-79.808-79.84z" />
<glyph unicode="&#xe612;" glyph-name="QA1" d="M511.424 829.344c-49.376-40.896-176.512-133.856-335.456-157.792v-228.128c0.096-11.392 6.208-281.76 335.776-409.312 329.632 127.552 335.808 397.92 335.904 409.504l-0.288 227.936c-159.296 23.936-286.496 116.896-335.936 157.792zM419.552 201.76l60.672 197.248h-109.984l221.952 271.232-60.672-197.28h110.016l-221.984-271.2zM508.672 960c-8.736-8.48-188.608-179.488-428.288-201.888v-301.184c0 0-2.912-361.696 428.288-520.928 431.2 159.264 434.944 520.928 434.944 520.928v301.184c-239.68 22.4-426.208 193.408-434.944 201.888zM511.744-0.128c-367.168 135.552-367.776 443.552-367.776 443.552v256.448c204.096 19.072 360.032 164.672 367.456 171.904 7.456-7.232 163.84-152.832 367.904-171.904l0.32-256.448c-0.032 0-0.704-308-367.904-443.552z" />
<glyph unicode="&#xe613;" glyph-name="QA2" d="M492.256 960c-8.736-8.48-188.576-179.488-428.256-201.888v-301.184c0 0-2.912-361.696 428.256-520.928 431.232 159.264 434.976 520.928 434.976 520.928v301.184c-239.68 22.4-426.208 193.408-434.976 201.888zM488.512 18.112c-367.168 135.584-367.808 443.584-367.808 443.584v256.416c204.096 19.072 360.032 164.672 367.488 171.904 7.456-7.232 163.808-152.832 367.872-171.904l0.32-256.448c0 0.032-0.704-307.968-367.872-443.552zM488.192 847.584c-49.408-40.896-176.512-133.824-335.488-157.76v-228.128c0.096-11.392 6.208-281.792 335.808-409.344 329.632 127.552 335.808 397.952 335.872 409.536l-0.256 227.936c-159.328 23.936-286.496 116.864-335.936 157.76zM320.672 333.664l-14.976 26.176c18.016 4.448 35.36 10.24 52 17.472s33.408 14.432 50.336 21.664l-0.416-25.824c-5.824-3.328-12.416-6.656-19.776-9.984s-14.848-6.752-22.464-10.176c-7.616-3.456-15.328-6.816-23.072-10.016-7.744-3.168-14.976-6.304-21.632-9.312zM424.672 280.416c-3.616-8.064-9.216-13.76-16.832-17.056-7.616-3.328-15.584-4.704-23.936-4.16-5.824 0.288-11.424 0.8-16.832 1.664s-10.88 1.824-16.448 2.912c-1.376 4.704-2.368 9.44-2.912 14.144-0.576 4.704-1.536 9.152-2.912 13.312 7.488-1.12 14.976-2.72 22.464-4.768 7.488-2.080 15.264-3.008 23.296-2.72 3.872 1.664 6.848 3.968 8.928 6.88s3.552 6.304 4.384 10.176c1.664 8.032 3.328 17.408 4.992 28.064 1.664 10.688 3.264 21.856 4.8 33.504 1.504 11.648 2.912 23.328 4.16 34.944 1.248 11.648 2.272 22.464 3.136 32.48h-96.096c-0.832 8.608-0.352 16.736 1.472 24.544 1.792 7.744 3.392 15.52 4.768 23.328 5.824 32.992 8.448 67.232 7.904 102.752 4.704-1.408 9.152-3.008 13.312-4.8s8.448-3.52 12.896-5.184c-1.952-39.648-6.656-78.336-14.144-116.064h43.264c1.088 5.824 2.272 14.016 3.52 24.544 1.248 10.56 2.432 22.112 3.52 34.752s2.016 25.792 2.688 39.52c0.672 13.728 1.056 26.688 1.056 38.88h-88.192v24.576h112.736c0-22.464-1.056-47.712-3.136-75.712-2.080-28.032-4.64-56.704-7.712-86.112h27.872c-2.752-36.32-5.888-69.472-9.344-99.392-3.456-30.112-7.68-55.040-12.672-75.008zM678.432 278.72h-232.96v24.576h134.4c12.512 23.296 21.888 47.456 28.256 72.608 6.368 25.088 11.552 51.104 15.424 78.016 4.128-1.408 8.32-3.072 12.448-4.992 4.192-1.952 8.384-3.744 12.512-5.408-4.672-24.672-10.304-48.672-16.8-71.968-6.56-23.328-14.944-46.016-25.184-68.224h72.384l-0.48-24.608zM527.040 460.544c3.584 1.376 7.232 2.624 10.848 3.744 8.576-14.72 16.192-29.76 22.88-45.152 6.624-15.36 11.488-31.808 14.56-49.28-3.616-2.208-7.488-4.256-11.68-6.016-4.128-1.824-8.32-3.52-12.448-5.216-1.44 18.016-5.568 34.944-12.512 50.752s-14.144 31.232-21.664 46.176c3.072 1.92 6.368 3.584 10.016 4.992zM525.216 483.424v31.872h63.584v-31.872h-63.584zM519.328 362.56c3.2-10.688 5.344-22.112 6.464-34.304-4.736-1.408-9.248-3.392-13.536-6.048-4.32-2.624-8.672-5.056-13.12-7.264-0.576 23.008-4.864 44.704-12.896 65.088s-17.888 40-29.536 58.88c3.904 1.088 7.424 2.816 10.624 5.184 3.2 2.336 6.72 3.936 10.624 4.768 5.28-9.44 10.528-18.72 15.808-27.872s10.048-18.496 14.368-28.064c4.256-9.6 8-19.712 11.2-30.368zM664.32 464.672c-6.368 4.992-12.928 10.176-19.744 15.584s-48.8 47.296-58.688 60.736c-9.824 13.44-18.368 27.264-25.568 41.376-7.744-14.112-16.576-28-26.432-41.6-6.72-9.248-53.824-57.344-61.152-62.176-7.328-4.864-14.624-9.216-21.856-13.12l-18.304 22.048c12.192 5.536 23.776 12.544 34.72 20.992s21.024 17.76 30.144 27.872c9.152 10.112 17.504 20.928 24.96 32.48 7.488 11.488 13.76 23.072 18.752 34.72l14.56 33.28 22.88-8.736c0-2.208-0.64-4.512-1.888-6.848-1.248-2.368-2.368-4.672-3.328-6.88-0.992-2.208-1.44-4.448-1.248-6.656 0.128-2.208 1.696-4.16 4.736-5.824 5.568-11.648 12.32-23.040 20.192-34.112 7.936-11.104 16.64-21.632 26.176-31.584 9.568-10.016 19.616-19.424 30.176-28.32s21.184-17.024 32-24.544l-21.088-18.688z" />
<glyph unicode="&#xe614;" glyph-name="QA3" d="M496.256 853.568c-49.408-40.896-176.512-133.856-335.488-157.792v-228.128c0.096-11.392 6.208-281.792 335.808-409.344 329.632 127.552 335.776 397.952 335.872 409.536l-0.288 227.936c-159.328 23.936-286.464 116.896-335.904 157.792zM672.768 576h-160.448v-96h128.448v-32h-128v-128h159.584l0.448-32h-352v32h64v192h32v-192h64v256.448h-160v31.552h352v-32zM493.024 960c-8.736-8.48-188.576-179.488-428.256-201.888v-301.184c0 0-2.912-361.696 428.256-520.928 431.2 159.264 434.976 520.928 434.976 520.928v301.184c-239.648 22.4-426.208 193.408-434.976 201.888zM496.576 24.096c-367.168 135.552-367.808 443.552-367.808 443.552v256.448c204.096 19.072 360.032 164.672 367.488 171.904 7.456-7.232 163.776-152.832 367.872-171.904l0.32-256.448c0 0-0.704-308-367.872-443.552z" />
<glyph unicode="&#xe615;" glyph-name="QA4" d="M495.488 829.664c-49.408-40.928-176.48-133.856-335.488-157.792v-228.128c0.096-11.392 6.208-281.792 335.808-409.344 329.6 127.552 335.776 397.952 335.84 409.536l-0.256 227.936c-159.328 23.936-286.528 116.864-335.904 157.792zM576.672 579.904c-18.848-19.136-35.136-39.584-48.864-61.344-13.728-21.792-25.568-46.112-35.552-73.024-8.064-22.176-14.624-44.672-19.744-67.36-5.12-22.752-8.256-43.968-9.376-63.648h-37.44c0.576 20.256 3.744 43.008 9.568 68.224 5.856 25.248 13.888 50.336 24.128 75.328 6.368 15.776 13.184 30.144 20.416 43.040s15.776 26.56 25.792 40.992c2.496 3.872 4.704 7.072 6.656 9.568s3.808 4.896 5.632 7.296c1.792 2.336 3.584 4.64 5.408 6.848s3.936 4.704 6.432 7.488h-145.568v34.944h192.576v-28.352zM493.088 960c-8.768-8.48-188.576-179.488-428.288-201.888v-301.184c0 0-2.912-361.696 428.256-520.928 431.2 159.264 434.944 520.928 434.944 520.928v301.184c-239.648 22.4-426.176 193.408-434.912 201.888zM495.808 0.192c-367.136 135.552-367.808 443.552-367.808 443.552v256.448c204.064 19.072 360 164.672 367.488 171.904 7.456-7.232 163.744-152.832 367.84-171.904l0.32-256.448c0 0-0.672-308-367.84-443.552z" />
<glyph unicode="&#xe616;" glyph-name="shop" d="M1024.128 535.040c0-70.752-57.312-133.664-128.064-133.664-70.688 0-128 62.912-128 133.664v0 0 0c0-70.752-57.312-133.664-128-133.664-70.752 0-128.064 62.912-128.064 133.664v0 0 0 0c0-70.752-57.344-133.664-128.064-133.664-70.688 0-128 62.912-128 133.664v0 0 0 0c0-70.752-57.312-133.664-128.032-133.664-70.688 0-128.032 62.912-128.032 133.664v0 0 0l90.048 280.352h844.16l90.048-280.352zM864.064 849.152h-704.16c-26.496 0-48 21.056-48 47.52 0 26.56 21.504 47.104 48 47.104h704.16c26.56 0 48-20.544 48-47.104 0-26.464-21.44-47.52-48-47.52zM127.936 373.888l-0.064-358.016 768.576-0.928v352.448c14.688-5.76 63.264-1.504 63.264-1.504l-1.568-366.016c0-26.528-21.568-47.68-48-47.68h-797.76c-26.528 0-48.032 21.152-48.032 47.68v371.456c57.248-10.528 63.584 2.56 63.584 2.56z" />
<glyph unicode="&#xe617;" glyph-name="car" d="M1000.928 809.376c-21.952 22.016-64.768 22.624-95.84 22.624l-483.52-0.224c-31.072 0-54.976-0.256-76.928-22.24-22.016-21.984-24.384-67.488-24.384-98.656 0 0-2.112-83.232-1.824-92.352 0.256-6.496-13.632-26.944-27.36-35.456-74.88-46.24-251.968-176.192-257.76-181.632-29.472-27.68-33.184-54.304-33.184-61.408 0.064-167.456 0.8-219.36 0.8-219.36 0.768 3.008 30.816-43.2 30.816-16.832 0 0-0.224 46.048 0.192 208.992 0.032 9.824-4.576 36.864 9.888 53.696 14.432 16.832 64.608 49.472 75.52 57.824-20.352-15.488 180.832 124 196.224 138.752 14.272 13.696 37.76 27.776 37.76 42.272 0.032 28.256 0.064 74.176 0.064 74.176v35.648l-0.32 17.6c0 10.368 12.096 42.176 19.424 49.536 7.392 7.296 26.656 17.664 36.992 17.664h527.168c10.336 0 32.096-8.032 39.456-15.392 7.328-7.328 17.76-22.656 17.76-33.024v-551.584c27.104-3.424 7.52-15.040 32-24.992v540.448c0 31.168-0.96 71.968-22.944 93.92zM447.872 416v159.872h-32v-159.872h-160v-32h192zM751.872 288c-56.384 0-102.56-41.824-110.368-96h-227.264c-7.808 54.176-54.016 96-110.368 96-61.888 0-112-50.144-112-112s50.112-112 112-112c56.384 0 102.56 41.824 110.368 96h227.264c7.808-54.176 54.016-96 110.368-96 61.888 0 112 50.144 112 112s-50.112 112-112 112zM303.872 96c-44.192 0-80 35.808-80 80s35.808 80 80 80 80-35.808 80-80-35.808-80-80-80zM751.872 96c-44.192 0-80 35.808-80 80s35.808 80 80 80 80-35.808 80-80-35.808-80-80-80z" />
<glyph unicode="&#xe618;" glyph-name="order" d="M896 960h-768c-70.688 0-128-57.312-128-128v-768c0-70.688 57.312-128 128-128h768c70.688 0 128 57.312 128 128v768c0 70.688-57.312 128-128 128zM992 88c0-66.24-53.76-120-120-120h-720c-66.24 0-120 53.76-120 120v720c0 66.24 53.76 120 120 120h720c66.24 0 120-53.76 120-120v-720zM319.68 688.192c0 44.192-35.808 80-80 80s-80-35.808-80-80 35.808-80 80-80c44.192 0 80 35.808 80 80zM191.68 688.192c0 26.496 21.472 48 48 48 26.496 0 48-21.504 48-48s-21.504-48-48-48c-26.528 0-48 21.504-48 48zM192 448h448v-31.808h-448v31.808zM192 320h639.808v-31.808h-639.808v31.808zM192 191.936h639.808v-31.808h-639.808v31.808z" />
<glyph unicode="&#xe619;" glyph-name="location" d="M514.656 959.264c-205.376 0-371.232-166.464-371.232-371.84 0-205.28 371.232-650.656 371.232-650.656s365.92 445.376 365.92 650.656c0 205.344-160.576 371.84-365.92 371.84zM514.464-12.448c-113.6 141.504-339.040 452.672-339.040 599.84 0 187.36 152.16 339.84 339.232 339.84 187.232 0 333.92-149.28 333.92-339.84 0-147.168-222.080-458.208-334.112-599.84zM527.616 735.648c-106.016 0-192-85.984-192-192s85.984-191.968 192-191.968c106.048 0 192 85.952 192 191.968s-85.92 192-192 192zM527.424 383.2c-88.384 0-160 71.584-160 159.968s71.616 160 160 160 160-71.616 160-160-71.616-159.968-160-159.968z" />
<glyph unicode="&#xe61a;" glyph-name="leaveMessage" d="M976.288 914.528c-30.272 30.208-70.432 45.472-113.152 45.472h-704c-42.72 0-82.912-15.264-113.152-45.472-30.24-30.24-45.984-70.432-45.984-113.152v-544c0-42.72 15.744-82.912 46.016-113.152 30.048-30.080 71.52-46.624 113.984-46.784v-161.44h128l159.136 160h416c42.72 0 82.912 18.016 113.152 48.256 30.176 30.208 47.712 70.4 47.712 113.12v544c0 42.72-17.536 82.912-47.712 113.152zM992 257.376c0-25.664-13.888-79.264-32-97.376-18.144-18.112-71.52-32-97.184-32h-442.176l-160-160h-68.64v160h-63.328c-0.224 0-0.448 0.064-0.672 0.064-25.408 0.16-59.52 39.68-65.536 46.176-5.024 5.472-30.464 28.992-30.464 83.136v574.624c0 25.664 10.016 49.76 28.128 67.872 18.112 18.144 42.24 28.128 67.872 28.128h768c25.664 0 49.76-9.984 67.872-28.096 18.144-18.144 28.128-42.24 28.128-67.904v-574.624zM352 544c0-35.346-28.654-64-64-64s-64 28.654-64 64c0 35.346 28.654 64 64 64s64-28.654 64-64zM576 544c0-35.346-28.654-64-64-64s-64 28.654-64 64c0 35.346 28.654 64 64 64s64-28.654 64-64zM800 544c0-35.346-28.654-64-64-64s-64 28.654-64 64c0 35.346 28.654 64 64 64s64-28.654 64-64z" />
<glyph unicode="&#xe61b;" glyph-name="notice" d="M512 960c-282.752 0-512-229.248-512-512s229.248-512 512-512 512 229.248 512 512-229.248 512-512 512zM512-32c-265.088 0-480 214.912-480 480s214.912 480 480 480 480-214.912 480-480-214.912-480-480-480zM484.384 576.256c8.64-58.496 15.136-128.928 19.488-211.264h16.256c2.112 69.312 9.76 144.064 22.752 224.256 4.32 39.008 7.552 69.312 9.76 91.008 4.32 15.136 6.496 24.864 6.496 29.248-2.208 36.8-17.376 56.32-45.504 58.496-30.368-2.176-46.624-21.696-48.736-58.496 0-6.496 1.056-21.696 3.264-45.504 6.464-34.688 11.84-63.936 16.224-87.744zM576 224c0-35.346-28.654-64-64-64s-64 28.654-64 64c0 35.346 28.654 64 64 64s64-28.654 64-64z" />
<glyph unicode="&#xe61c;" glyph-name="pay" d="M512 960c-282.752 0-512-229.248-512-512s229.248-512 512-512 512 229.248 512 512-229.248 512-512 512zM512-32c-265.088 0-480 214.912-480 480s214.912 480 480 480 480-214.912 480-480-214.912-480-480-480zM647.744 704l-88.128-157.888c-23.488-44-37.888-68.992-43.136-83.488h-1.504c-15.488 35.264-59.264 109.888-131.264 241.376h-82.88l154.112-256h-134.944v-64h160v-64h-160v-64h160v-128h64v128h160v64h-160v64h160v64h-133.504l155.616 256h-78.368z" />
<glyph unicode="&#xe61d;" glyph-name="applycation1" d="M512 960c-282.784 0-512-229.248-512-512 0-282.784 229.216-512 512-512 282.752 0 512 229.216 512 512 0 282.752-229.248 512-512 512zM400.736 744.208h211.536c0 0 45.344-20.128 45.344-61.68 0-64.784-75.568-77.12-75.568-77.12h-151.088c-19.632 4-75.152 24.032-75.568 77.12-0.256 36.832 45.344 61.68 45.344 61.68zM655.168 152.016v-0.128h-2.464c-0.624-0.016-1.232-0.096-1.872-0.096s-1.248 0.080-1.872 0.096l-271.040 0.096c-1.264-0.032-2.48-0.192-3.744-0.192-76.496 0-138.496 61.344-138.496 137.024 0 0.64 0.096 1.248 0.096 1.872l-1.056-0.064c0 155.904 81.584 277.36 238.208 288.528l0.448 1.152h63.632l0.336-0.768c147.152-6.672 230.24-108.624 244.32-246.128 4.88-14 7.664-28.976 7.664-44.608-0.032-74.208-59.712-134.496-134.16-136.784zM587.328 436.848c-1.408 12.4-8.128 19.344-20.16 20.816-7.056-0.752-12.368-3.664-15.904-8.784l-39.248-58.096-39.28 58.096c-3.536 5.12-8.848 8.032-15.904 8.784-12.032-1.472-18.752-8.4-20.16-20.816 0-4.4 1.408-8.432 4.256-12.064l33.28-42.88h-25.216c-15.536-1.472-16.096-36.336 0-37.808h37.808v-12.592h-37.808c-15.536-1.472-16.096-36.336 0-37.808h37.808v-25.216c0.688-12.448 12.464-12.48 25.216-12.48 12.72 0 24.464 0.032 25.184 12.464v25.216h37.808c16.096 1.472 15.536 36.336 0 37.808h-37.808v12.592h37.808c16.096 1.504 15.536 36.336 0 37.808h-25.184l33.28 42.88c2.816 3.632 4.224 7.664 4.224 12.080z" />
<glyph unicode="&#xe61e;" glyph-name="applycation2" d="M512 960c-282.784 0-512-229.248-512-512 0-282.784 229.216-512 512-512 282.752 0 512 229.216 512 512 0 282.752-229.248 512-512 512zM723.84 305.776c-31.248-28.336-211.76-159.792-211.76-159.792v88.080c-162.416 0-302.112 110.144-302.112 254.384s141.248 261.584 303.664 261.584c162.432 0 300.4-117.344 300.4-261.584 0-71.104-38.304-135.568-90.192-182.672zM415.984 488.48c0-21.826-17.694-39.52-39.52-39.52s-39.52 17.694-39.52 39.52c0 21.826 17.694 39.52 39.52 39.52s39.52-17.694 39.52-39.52zM560.688 488.48c0-21.826-17.694-39.52-39.52-39.52s-39.52 17.694-39.52 39.52c0 21.826 17.694 39.52 39.52 39.52s39.52-17.694 39.52-39.52zM705.376 488.48c0-21.826-17.694-39.52-39.52-39.52s-39.52 17.694-39.52 39.52c0 21.826 17.694 39.52 39.52 39.52s39.52-17.694 39.52-39.52z" />
<glyph unicode="&#xe61f;" glyph-name="QA5" d="M355.296 566.784c-14.304 0-26.144-5.44-35.552-16.32-9.408-10.912-14.080-24.544-14.080-40.928 0-17.888 4.608-32.032 13.76-42.528 9.152-10.464 21.856-15.712 37.984-15.712 14.016 0 25.76 4.768 35.264 14.336s14.24 21.184 14.24 34.816c0 19.136-4.704 34.976-14.144 47.52-9.536 12.544-21.984 18.816-37.472 18.816zM511.488 832c-49.44-40.896-176.48-133.856-335.488-157.792v-228.128c0.096-11.392 6.208-281.792 335.808-409.344 329.6 127.552 335.776 397.952 335.84 409.536l-0.256 227.936c-159.328 23.936-286.528 116.896-335.904 157.792zM413.568 359.328c-19.264-26.496-45.92-39.712-79.904-39.712-18.688 0-34.496 3.040-47.424 9.088v31.456c14.656-8.48 30.464-12.704 47.424-12.704 23.808 0 42.272 9.408 55.392 28.192s19.68 45.504 19.68 80.096c-0.224-0.224-0.48-0.224-0.672 0-11.68-22.208-31.328-33.344-58.976-33.344-22.304 0-40.832 7.68-55.488 23.040s-22.016 35.296-22.016 59.808c0 26.112 8.032 47.584 24.064 64.384s36.832 25.152 62.368 25.152c26.496 0 47.168-10.368 62.048-31.2 14.912-20.768 22.336-51.072 22.336-90.816 0.032-49.184-9.6-86.976-28.832-113.44zM746.080 341.888c-44 18.496-76 50.912-96 97.248-14.848-38.080-46.24-70.080-94.24-96-6.496 8.352-15.904 19.008-28.256 32 53.344 24.16 84.48 52.832 93.376 86.016h-90.624v34.496h98.368c2.080 13.6 3.392 28.896 4 46.016h-88.64v34.016h216v-34.016h-90.88c-0.672-14.592-1.6-29.92-2.752-46.016h106.368v-34.496h-95.616c18.4-42.080 51.040-70.016 97.888-83.744-6.816-7.68-16.48-19.52-28.992-35.52zM508.288 960c-8.768-8.48-188.576-179.488-428.288-201.888v-301.184c0 0-2.88-361.696 428.288-520.928 431.2 159.264 434.944 520.928 434.944 520.928v301.184c-239.68 22.4-426.208 193.408-434.944 201.888zM523.36 6.912l-11.552-4.48-11.552 4.48c-349.76 135.36-356.16 426.592-356.256 439.168v255.68l27.264 4.128c151.808 22.848 274.24 113.056 319.84 150.784l20.416 16.864 20.416-16.864c45.536-37.728 167.84-127.904 320.256-150.784l27.232-4.096 0.032-27.52 0.256-228.16c-0.128-12.32-5.696-303.488-356.352-439.2z" />
<glyph unicode="&#xe620;" glyph-name="check-mall" d="M938.080 731.712l-23.264-23.296c48.64-75.040 77.184-164.32 77.184-260.416 0-265.088-214.912-480-480-480s-480 214.912-480 480 214.912 480 480 480c87.744 0 169.76-23.936 240.544-65.056l23.296 23.264c-77.152 46.528-167.168 73.792-263.84 73.792-282.784 0-512-229.216-512-512s229.216-512 512-512 512 229.216 512 512c0 104.96-31.712 202.496-85.92 283.712zM735.36 559.84l-266.080-256.832-166.496 172.928c-7.392 7.712-19.68 7.904-27.296 0.448-7.712-7.328-7.968-19.584-0.544-27.328l179.936-186.784c3.712-3.776 8.416-7.392 13.952-5.92 4.928 0 9.792 2.016 13.312 5.44l279.968 270.368c7.616 7.328 7.872 19.584 0.512 27.264-7.392 7.584-19.584 7.808-27.264 0.416z" />
<glyph unicode="&#xe621;" glyph-name="star" d="M512 960l168.736-306.048 343.264-65.952-238.944-255.104 43.36-346.816-316.416 148.416-316.48-148.416 43.392 346.816-238.912 255.104 343.264 65.952 168.736 306.048z" />
<glyph unicode="&#xe622;" glyph-name="linestar" d="M828.448-29.92l-316.448 148.416-316.48-148.416 43.392 346.816-238.912 255.136 343.296 65.92 168.704 306.048 168.704-306.048 343.296-65.92-238.944-255.136 43.392-346.816zM512 151.776l279.776-131.2-38.368 306.592 211.232 225.504-303.424 58.304-149.216 270.624-149.184-270.592-303.456-58.304 211.264-225.504-38.4-306.592 279.776 131.168z" />
<glyph unicode="&#xe623;" glyph-name="halfstar" d="M828.448-29.92l-316.448 148.416-316.48-148.416 43.392 346.816-238.912 255.136 343.296 65.92 168.704 306.048 168.704-306.048 343.296-65.92-238.944-255.136 43.392-346.816zM512 151.776l279.776-131.2-38.368 306.592 211.232 225.504-303.424 58.304-149.216 270.624v-729.824z" />
<glyph unicode="&#xf100;" glyph-name="ion-alert-circled" d="M890 116c6-10 10-26 4-36s-16-16-28-16h-836c-12 0-22 6-28 16s-2 26 4 36l414 698c6 10 16 18 28 18s22-8 28-18zM512 160v96h-128v-96h128zM512 320v288h-128v-288h128z" />
<glyph unicode="&#xf101;" glyph-name="ion-alert" horiz-adv-x="256" d="M256 0h-256v192h256v-192zM224 320h-192l-32 576h256z" />
<glyph unicode="&#xf11c;" glyph-name="ion-chatboxes" horiz-adv-x="832" d="M492 228l52-36c-8-42-58-64-104-64h-180c-16 0-22-4-26-6l-106-90v96h-32c-52 0-96 32-96 82v258c0 50 40 90 92 90h4v-202c0-66 58-118 128-118h234c20 0 28-6 34-10zM706 864c70 0 126-54 126-120v-336c0-66-56-120-126-120h-34v-128l-150 120c-4 4-14 8-34 8h-202c-70 0-126 54-126 120v336c0 66 42 120 112 120h434z" />
<glyph unicode="&#xf11d;" glyph-name="ion-chatbubble-working" horiz-adv-x="832" d="M416 62c-230 0-416 178-416 400s186 402 416 402 416-180 416-402c0-80-24-154-66-216-2-2-4-6-6-8v0c-4-8-8-20-8-30l44-176-168 62c-8 4-16 4-24 4s-14-2-22-4v0c-2 0-2-2-4-2-50-20-104-30-162-30zM608 512c-36 0-64-28-64-64s28-64 64-64 64 28 64 64-28 64-64 64zM416 512c-36 0-64-28-64-64s28-64 64-64 64 28 64 64-28 64-64 64zM224 512c-36 0-64-28-64-64s28-64 64-64 64 28 64 64-28 64-64 64z" />
<glyph unicode="&#xf129;" glyph-name="ion-close-round" horiz-adv-x="768" d="M748 186c28-28 28-74 0-102s-74-28-102 0l-262 262-262-262c-28-28-72-28-100 0s-28 74 0 102l260 262-260 262c-28 28-28 74 0 102s72 28 100 0l262-262 262 262c28 28 74 28 102 0s28-74 0-102l-262-262z" />
<glyph unicode="&#xf12a;" glyph-name="ion-close" horiz-adv-x="768" d="M760 186c6-6 8-12 8-20s-2-14-8-20l-76-74c-6-6-10-8-18-8s-14 2-20 8l-262 262-262-262c-6-6-10-8-18-8s-14 2-20 8l-76 74c-6 6-8 12-8 20s2 14 8 20l264 262-264 260c-10 10-10 30 0 40l74 76c6 4 12 8 20 8s14-2 20-8l262-260 262 260c6 4 12 8 20 8s14-2 20-8l74-76c10-10 10-28 0-38l-264-260z" />
<glyph unicode="&#xf132;" glyph-name="ion-email" horiz-adv-x="832" d="M38 662c-8 4-22 14-26 22-6 16 2 20 24 20h764c22 0 30-4 24-20-4-8-18-18-26-22-22-12-326-178-338-184s-24-8-42-8-30 2-42 8-316 172-338 184zM816 654c18 8 16-2 16-10v-410c0-18-24-42-44-42h-740c-20 0-48 24-48 42v410s0 18 18 10c16-8 166-112 264-176l-166-186c-4-4-4-8-2-10s8-2 12 2l196 166c30-20 50-32 54-34 16-8 28-8 42-8s26 0 42 8c4 2 24 14 54 34l196-166c4-4 10-4 12-2s0 6-4 10l-164 186c98 64 246 168 262 176z" />
<glyph unicode="&#xf208;" glyph-name="ion-minus-round" horiz-adv-x="768" d="M706 512c34 0 62-28 62-64s-28-64-62-64h-644c-34 0-62 28-62 64s28 64 62 64h644z" />
<glyph unicode="&#xf209;" glyph-name="ion-minus" horiz-adv-x="768" d="M0 384v128h768v-128h-768z" />
<glyph unicode="&#xf217;" glyph-name="ion-plus-round" horiz-adv-x="768" d="M706 512c34 0 62-28 62-64s-28-64-62-64h-258v-258c0-34-28-62-64-62s-64 28-64 62v258h-258c-34 0-62 28-62 64s28 64 62 64h258v258c0 34 28 62 64 62s64-28 64-62v-258h258z" />
<glyph unicode="&#xf218;" glyph-name="ion-plus" horiz-adv-x="768" d="M768 512v-128h-320v-320h-128v320h-320v128h320v320h128v-320h320z" />
<glyph unicode="&#xf252;" glyph-name="ion-trash-a" horiz-adv-x="704" d="M522 704v0h182v-64h-18s-10-2-16-8-8-18-8-18l-38-482c-4-58-4-68-72-68h-400c-68 0-68 10-72 68l-38 484s-2 12-8 18-16 6-16 6h-18v64h182v58c0 38 28 70 68 70h202c40 0 70-32 70-70v-58zM224 762v-58h256v58c0 20-18 30-38 30h-182c-20 0-36-10-36-30zM208 192h40l-20 384h-42zM374 192v384h-44v-384h44zM498 192l20 384h-40l-22-384h42z" />
<glyph unicode="&#xf253;" glyph-name="ion-trash-b" horiz-adv-x="640" d="M636 694c6-24 8-22-14-22h-604c-22 0-20-2-14 22 4 18 8 26 8 26 6 18 18 18 38 22l106 14c14 2 14 2 20 14 18 40 20 62 40 62h206c20 0 24-22 42-62 6-12 6-12 20-14l106-12c20-4 32-4 38-22 0 0 4-10 8-28zM566 608c34 0 36-4 34-30l-38-484c-4-24-4-30-34-30h-416c-30 0-30 6-34 30l-38 484c-2 24 0 30 34 30h492z" />
<glyph unicode="&#xf29a;" glyph-name="ion-load-a" horiz-adv-x="768" d="M288 768c0 86 42 128 128 128s128-42 128-128-42-128-128-128-128 42-128 128zM0 448c0 64 32 96 96 96s96-32 96-96-32-96-96-96-96 32-96 96zM624 672c0 10 6 16 16 16s16-6 16-16-6-16-16-16-16 6-16 16zM264 744c20-20 30-44 30-72s-10-52-30-72-44-30-72-30-52 10-72 30-30 44-30 72 10 52 30 72 44 30 72 30 52-10 72-30zM704 448c0 22 10 32 32 32s32-10 32-32-10-32-32-32-32 10-32 32zM594 222c0 32 16 48 48 48s48-16 48-48-16-48-48-48-48 16-48 48zM352 128c0 42 22 64 64 64s64-22 64-64-22-64-64-64-64 22-64 64zM112 224c0 54 26 80 80 80s80-26 80-80-26-80-80-80-80 26-80 80z" />
<glyph unicode="&#xf29b;" glyph-name="ion-load-b" d="M512 640c0-36-28-64-64-64v0c-36 0-64 28-64 64v192c0 36 28 64 64 64v0c36 0 64-28 64-64v-192zM448 320v0c36 0 64-28 64-64v-192c0-36-28-64-64-64s-64 28-64 64v192c0 36 28 64 64 64zM832 512v0c36 0 64-28 64-64s-28-64-64-64h-192c-36 0-64 28-64 64s28 64 64 64h192zM256 512v0c36 0 64-28 64-64s-28-64-64-64h-192c-36 0-64 28-64 64s28 64 64 64h192zM628 538c-24-24-66-24-90 0v0c-24 24-24 68 0 92l136 134c24 24 66 24 90 0v0c24-24 24-66 0-90zM358 358v0c24-24 24-66 0-92l-136-134c-24-24-66-24-90 0s-24 66 0 90l134 136c24 24 68 24 92 0zM764 222v0c24-24 24-66 0-90s-66-24-90 0l-136 136c-24 24-24 66 0 90s66 24 90 0zM358 628v0c24-24 24-66 0-90s-68-24-92 0l-134 136c-24 24-24 66 0 90s66 24 90 0z" />
<glyph unicode="&#xf29c;" glyph-name="ion-load-c" d="M896 508c0-6 0-12-2-18-8-16-30-24-46-14-8 4-12 14-14 22-2 10-2 18-4 28-8 40-24 80-44 116-24 42-56 82-94 112-36 30-80 52-124 66-42 12-84 18-128 18h-8c-6 0-12-2-18-2-12 0-28-2-40-4-26-4-50-12-74-22-42-16-80-40-114-70s-62-66-84-104c-24-44-40-90-48-140-4-22-4-46-4-68 0-12 0-22 2-32 2-12 4-26 6-38 10-48 28-94 56-134 26-40 58-76 96-104 40-30 84-52 130-66 50-14 100-18 152-14 50 4 100 18 146 40 22 10 44 24 64 38s38 30 54 48c8 8 16 18 24 28s14 20 20 30 24 40 34 62c8 16 16 32 22 50 4 8 6 18 8 26s2 14 4 22c2-18 2-36-2-52-2-10-4-22-8-32-2-10-6-20-10-30-8-20-16-38-26-56-12-22-24-42-40-60s-32-36-50-52c-36-30-80-54-124-72-46-18-96-28-146-30s-102 6-150 22c-46 14-90 38-130 66-38 28-72 62-100 100-14 20-26 40-36 62s-18 42-26 66c-12 36-18 74-20 112-2 40 2 78 10 116 10 48 30 94 56 136 24 38 52 70 84 100s70 54 110 72c46 22 96 38 148 42 20 2 38 2 58 2 26 0 52-4 76-8 48-10 94-28 136-52s82-58 114-96c30-36 54-74 72-116 8-20 14-42 20-64 4-16 10-34 12-52z" />
<glyph unicode="&#xf29d;" glyph-name="ion-load-d" horiz-adv-x="768" d="M736 480c18 0 32-14 32-32s-14-32-32-32h-160c-18 0-32 14-32 32s14 32 32 32h160zM224 448c0-18-14-32-32-32h-160c-18 0-32 14-32 32s14 32 32 32h160c18 0 32-14 32-32zM384 288c18 0 32-14 32-32v-160c0-18-14-32-32-32s-32 14-32 32v160c0 18 14 32 32 32zM384 832c18 0 32-14 32-32v-160c0-18-14-32-32-32s-32 14-32 32v160c0 18 14 32 32 32zM522 528c-8 16-4 36 12 44l138 80c16 8 36 4 44-12s4-36-12-44l-138-80c-16-8-36-4-44 12zM246 368c8-16 4-36-12-44l-138-80c-16-8-36-4-44 12s-4 36 12 44l138 80c16 8 36 4 44-12zM508 298l80-138c8-16 4-36-12-44s-36-4-44 12l-80 138c-8 16-4 36 12 44s36 4 44-12zM236 768l80-138c8-16 4-36-12-44s-36-4-44 12l-80 138c-8 16-4 36 12 44s36 4 44-12zM464 586c-16 8-20 28-12 44l80 138c8 16 28 20 44 12s20-28 12-44l-80-138c-8-16-28-20-44-12zM304 310c16-8 20-28 12-44l-80-138c-8-16-28-20-44-12s-20 28-12 44l80 138c8 16 28 20 44 12zM704 300c16-8 20-28 12-44s-28-20-44-12l-138 80c-16 8-20 28-12 44s28 20 44 12zM64 596c-16 8-20 28-12 44s28 20 44 12l138-80c16-8 20-28 12-44s-28-20-44-12z" />
<glyph unicode="&#xf2c7;" glyph-name="ion-android-add" horiz-adv-x="640" d="M640 406h-278v-278h-84v278h-278v84h278v278h84v-278h278v-84z" />
<glyph unicode="&#xf2d7;" glyph-name="ion-android-close" horiz-adv-x="596" d="M596 686l-238-238 238-238-60-60-238 238-238-238-60 60 238 238-238 238 60 60 238-238 238 238z" />
<glyph unicode="&#xf359;" glyph-name="ion-android-add-circle" horiz-adv-x="832" d="M416 864c230 0 416-186 416-416s-186-416-416-416-416 186-416 416 186 416 416 416zM630 406v84h-172v172h-84v-172h-172v-84h172v-172h84v172h172z" />
<glyph unicode="&#xf35b;" glyph-name="ion-android-alert" horiz-adv-x="832" d="M416 864c228 0 416-188 416-416s-188-416-416-416-416 188-416 416 188 416 416 416zM464 240v80h-96v-80h96zM464 416v256h-96v-256h96z" />
<glyph unicode="&#xf37e;" glyph-name="ion-android-create" horiz-adv-x="768" d="M0 224l472 472 160-160-472-472h-160v160zM756 660l-80-80-160 160 80 80c18 18 40 18 58 0l102-102c18-18 18-40 0-58z" />
<glyph unicode="&#xf37f;" glyph-name="ion-android-delete" horiz-adv-x="640" d="M64 150v490h512v-490c0-46-40-86-86-86h-340c-46 0-86 40-86 86zM640 768v-64h-640v64h160l54 64h212l54-64h160z" />
<glyph unicode="&#xf383;" glyph-name="ion-android-done" horiz-adv-x="768" d="M244 280l460 460 64-62-524-522-244 244 64 62z" />
<glyph unicode="&#xf387;" glyph-name="ion-android-favorite-outline" horiz-adv-x="832" d="M604 832c128 0 228-100 228-230 0-160-142-288-356-484l-60-54-60 54c-214 196-356 324-356 484 0 130 100 230 228 230 72 0 142-34 188-88 46 54 116 88 188 88zM442 174c100 92 188 172 246 244 56 70 80 126 80 184 0 46-18 88-48 118s-70 48-116 48c-52 0-106-26-140-66l-48-58-48 58c-34 40-88 66-140 66-46 0-86-18-116-48s-48-72-48-118c0-58 24-114 80-184 58-72 146-152 246-244l8-8 18-16 18 16z" />
<glyph unicode="&#xf388;" glyph-name="ion-android-favorite" horiz-adv-x="832" d="M416 64l-60 54c-214 196-356 324-356 484 0 130 100 230 228 230 72 0 142-34 188-88 46 54 116 88 188 88 128 0 228-100 228-230 0-160-142-288-356-484z" />
<glyph unicode="&#xf3a3;" glyph-name="ion-android-pin" horiz-adv-x="640" d="M320 896c176 0 320-142 320-314 0-236-320-582-320-582s-320 346-320 582c0 172 144 314 320 314zM320 470c64 0 114 50 114 112s-50 112-114 112-114-50-114-112 50-112 114-112z" />
<glyph unicode="&#xf3cf;" glyph-name="ion-ios-arrow-back" horiz-adv-x="384" d="M384 704l-254-256 254-256-64-64-320 320 320 320z" />
<glyph unicode="&#xf3d0;" glyph-name="ion-ios-arrow-down" horiz-adv-x="640" d="M602 640l38-42-320-342-320 342 38 42 282-300z" />
<glyph unicode="&#xf3d1;" glyph-name="ion-ios-arrow-forward" horiz-adv-x="384" d="M0 704l64 64 320-320-320-320-64 64 254 256z" />
<glyph unicode="&#xf3d2;" glyph-name="ion-ios-arrow-left" horiz-adv-x="384" d="M384 730l-300-282 300-282-42-38-342 320 342 320z" />
<glyph unicode="&#xf3d3;" glyph-name="ion-ios-arrow-right" horiz-adv-x="384" d="M0 730l42 38 342-320-342-320-42 38 300 282z" />
<glyph unicode="&#xf3d4;" glyph-name="ion-ios-arrow-thin-down" horiz-adv-x="384" d="M380 316c4-4 4-8 4-12s0-8-4-12c0 0-174-158-176-160s-6-4-12-4-10 2-12 4-176 160-176 160c-6 6-6 18 0 24s18 6 24 0l148-134v570c0 8 8 16 16 16s16-8 16-16v-570l148 134c6 6 18 6 24 0z" />
<glyph unicode="&#xf3d5;" glyph-name="ion-ios-arrow-thin-left" horiz-adv-x="640" d="M188 260c-4-4-8-4-12-4s-8 0-12 4c0 0-158 174-160 176s-4 6-4 12 2 10 4 12 160 176 160 176c6 6 18 6 24 0s6-18 0-24l-134-148h570c8 0 16-8 16-16s-8-16-16-16h-570l134-148c6-6 6-18 0-24z" />
<glyph unicode="&#xf3d6;" glyph-name="ion-ios-arrow-thin-right" horiz-adv-x="640" d="M452 260c-6 6-6 18 0 24l134 148h-570c-8 0-16 8-16 16s8 16 16 16h570l-134 148c-6 6-6 18 0 24s18 6 24 0c0 0 158-174 160-176s4-6 4-12-2-10-4-12-160-176-160-176c-4-4-8-4-12-4s-8 0-12 4z" />
<glyph unicode="&#xf3d7;" glyph-name="ion-ios-arrow-thin-up" horiz-adv-x="384" d="M380 580c-6-6-18-6-24 0l-148 134v-570c0-8-8-16-16-16s-16 8-16 16v570l-148-134c-6-6-18-6-24 0s-6 18 0 24c0 0 174 158 176 160s6 4 12 4 10-2 12-4 176-160 176-160c4-4 4-8 4-12s0-8-4-12z" />
<glyph unicode="&#xf3d8;" glyph-name="ion-ios-arrow-up" horiz-adv-x="640" d="M602 256l-282 300-282-300-38 42 320 342 320-342z" />
<glyph unicode="&#xf3f7;" glyph-name="ion-ios-cart-outline" horiz-adv-x="768" d="M192 160c26 0 48-22 48-48s-22-48-48-48-48 22-48 48 22 48 48 48zM192 96c8 0 16 8 16 16s-8 16-16 16-16-8-16-16 8-16 16-16zM640 160c26 0 48-22 48-48s-22-48-48-48-48 22-48 48 22 48 48 48zM640 96c8 0 16 8 16 16s-8 16-16 16-16-8-16-16 8-16 16-16zM768 704l-32-256-542-96 10-60c14-68 42-68 52-68h480v-32h-480c-22 0-42 10-56 28-12 16-22 38-26 66l-86 468c-4 16-6 24-14 32-12 10-36 14-74 14v32c46 0 76-8 94-22 14-12 20-28 24-42zM710 476l22 198-608 62 64-352z" />
<glyph unicode="&#xf3f8;" glyph-name="ion-ios-cart" horiz-adv-x="768" d="M192 160c26 0 48-22 48-48s-22-48-48-48-48 22-48 48 22 48 48 48zM640 160c26 0 48-22 48-48s-22-48-48-48-48 22-48 48 22 48 48 48zM768 704l-32-256-542-96 10-60c14-68 42-68 52-68h480v-32h-480c-22 0-42 10-56 28-12 16-22 38-26 66l-86 468c-4 16-6 24-14 32-12 10-36 14-74 14v32c46 0 76-8 94-22 14-12 20-28 24-42z" />
<glyph unicode="&#xf3f9;" glyph-name="ion-ios-chatboxes-outline" horiz-adv-x="832" d="M32 832v-384h192v-32h-224v448h576v-224h-32v192h-512zM256 608h576v-448h-96v-128h-26l-128 128h-326v448zM800 192v384h-512v-384h306l110-110v110h96z" />
<glyph unicode="&#xf3fa;" glyph-name="ion-ios-chatboxes" horiz-adv-x="832" d="M576 864v-224h-352v-224h-224v448h576zM256 608h576v-448h-96v-128h-26l-128 128h-326v448z" />
<glyph unicode="&#xf3fd;" glyph-name="ion-ios-checkmark-empty" horiz-adv-x="414" d="M148 300c-4-4-12-8-18-8s-14 4-18 8l-112 112 36 36 94-94 250 252 34-36z" />
<glyph unicode="&#xf3fe;" glyph-name="ion-ios-checkmark-outline" horiz-adv-x="832" d="M584 606l36-36-268-270c-4-4-12-8-18-8s-14 4-18 8l-112 112 36 36 94-94zM416 864c230 0 416-186 416-416s-186-416-416-416-416 186-416 416 186 416 416 416zM416 66c210 0 382 172 382 382s-172 382-382 382-382-172-382-382 172-382 382-382z" />
<glyph unicode="&#xf3ff;" glyph-name="ion-ios-checkmark" horiz-adv-x="832" d="M416 864c230 0 416-186 416-416s-186-416-416-416-416 186-416 416 186 416 416 416zM352 300l268 270-36 36-250-252-94 94-36-36 112-112c4-4 12-8 18-8s14 4 18 8z" />
<glyph unicode="&#xf402;" glyph-name="ion-ios-clock-outline" horiz-adv-x="832" d="M416 864c230 0 416-186 416-416s-186-416-416-416-416 186-416 416 186 416 416 416zM416 66c210 0 382 172 382 382s-172 382-382 382-382-172-382-382 172-382 382-382zM416 448v256h34v-290h-226v34h192z" />
<glyph unicode="&#xf403;" glyph-name="ion-ios-clock" horiz-adv-x="832" d="M416 864c230 0 416-186 416-416s-186-416-416-416-416 186-416 416 186 416 416 416zM450 414v290h-34v-256h-192v-34h226z" />
<glyph unicode="&#xf404;" glyph-name="ion-ios-close-empty" horiz-adv-x="384" d="M360 640l24-24-168-168 168-168-24-24-168 168-168-168-24 24 168 168-168 168 24 24 168-168z" />
<glyph unicode="&#xf405;" glyph-name="ion-ios-close-outline" horiz-adv-x="832" d="M710 742c162-162 162-426 0-588s-426-162-588 0-162 426 0 588 426 162 588 0zM686 178c148 148 148 392 0 540s-392 148-540 0-148-392 0-540 392-148 540 0zM584 640l24-24-168-168 168-168-24-24-168 168-168-168-24 24 168 168-168 168 24 24 168-168z" />
<glyph unicode="&#xf406;" glyph-name="ion-ios-close" horiz-adv-x="832" d="M710 742c162-162 162-426 0-588s-426-162-588 0-162 426 0 588 426 162 588 0zM608 280l-168 168 168 168-24 24-168-168-168 168-24-24 168-168-168-168 24-24 168 168 168-168z" />
<glyph unicode="&#xf417;" glyph-name="ion-ios-compose-outline" horiz-adv-x="768" d="M608 128v416l32 32v-480h-640v608h512l-32-32h-448v-544h576zM348 392l342 342 22-22-360-360h-64v64l360 360 22-22-342-342zM760 800c4-6 8-12 8-20s-4-14-8-20l-24-24-64 64 24 24c6 4 12 8 20 8s14-4 20-8z" />
<glyph unicode="&#xf418;" glyph-name="ion-ios-compose" horiz-adv-x="768" d="M384 320l256 256v-480h-640v608h512l-256-256v-128h128zM648 776l64-64-360-360h-64v64zM760 800c4-6 8-12 8-20s-4-14-8-20l-24-24-64 64 24 24c6 4 12 8 20 8s14-4 20-8z" />
<glyph unicode="&#xf422;" glyph-name="ion-ios-email-outline" horiz-adv-x="768" d="M0 704h768v-512h-768v512zM384 424l326 248h-652zM32 224h704v428l-230-176 136-154-4-4-158 140-96-74-96 74-158-140-4 4 136 154-230 176v-428z" />
<glyph unicode="&#xf423;" glyph-name="ion-ios-email" horiz-adv-x="768" d="M768 192h-768v484l262-200-136-154 4-4 158 140 96-74 96 74 158-140 4 4-136 154 262 200v-484zM752 704l-368-280-368 280h736z" />
<glyph unicode="&#xf44d;" glyph-name="ion-ios-information" horiz-adv-x="832" d="M416 864c230 0 416-186 416-416s-186-416-416-416-416 186-416 416 186 416 416 416zM408 656c-22 0-40-18-40-40s18-40 40-40 40 18 40 40-18 40-40 40zM480 256v16h-32v256h-96v-16h32v-240h-32v-16h128z" />
<glyph unicode="&#xf455;" glyph-name="ion-ios-location-outline" horiz-adv-x="576" d="M288 864c-68 0-134-26-182-74s-74-114-74-182c0-86 48-214 140-372 44-76 88-144 116-182 28 38 72 106 116 182 92 158 140 286 140 372 0 68-26 134-74 182s-114 74-182 74zM288 896v0c160 0 288-128 288-288 0-224-288-608-288-608s-288 384-288 608c0 160 128 288 288 288zM288 736c70 0 128-58 128-128s-58-128-128-128-128 58-128 128 58 128 128 128zM288 514c52 0 94 42 94 94s-42 94-94 94-94-42-94-94 42-94 94-94z" />
<glyph unicode="&#xf456;" glyph-name="ion-ios-location" horiz-adv-x="576" d="M288 896c160 0 288-128 288-288 0-224-288-608-288-608s-288 384-288 608c0 160 128 288 288 288zM288 514c52 0 94 42 94 94s-42 94-94 94-94-42-94-94 42-94 94-94z" />
<glyph unicode="&#xf457;" glyph-name="ion-ios-locked-outline" horiz-adv-x="640" d="M528 512h112v-480h-640v480h112v144c0 114 94 208 208 208s208-94 208-208v-144zM144 656v-144h352v144c0 98-78 176-176 176s-176-78-176-176zM608 64v416h-576v-416h576zM320 384c36 0 64-28 64-64 0-30-20-54-48-62v-66h-32v66c-28 8-48 32-48 62 0 36 28 64 64 64zM320 288c18 0 32 14 32 32s-14 32-32 32-32-14-32-32 14-32 32-32z" />
<glyph unicode="&#xf458;" glyph-name="ion-ios-locked" horiz-adv-x="640" d="M528 512h112v-480h-640v480h112v144c0 114 94 208 208 208s208-94 208-208v-144zM336 258c28 8 48 32 48 62 0 36-28 64-64 64s-64-28-64-64c0-30 20-54 48-62v-66h32v66zM496 512v144c0 98-78 176-176 176s-176-78-176-176v-144h352zM320 352c18 0 32-14 32-32s-14-32-32-32-32 14-32 32 14 32 32 32z" />
<glyph unicode="&#xf459;" glyph-name="ion-ios-loop-strong" d="M512 864c230 0 416-186 416-416 0-28-2-56-8-84l-2-8-48 10 2 8c4 24 8 48 8 74 0 202-166 368-368 368-132 0-254-72-320-188l-4-6-42 22 4 8c74 130 212 212 362 212zM832 268l4 6 42-22-4-8c-74-130-212-212-362-212-230 0-416 186-416 416 0 28 2 56 8 84l2 8 48-10-2-8c-4-24-8-48-8-74 0-202 166-368 368-368 132 0 254 72 320 188zM768 448h256l-128-128zM0 448l128 128 128-128h-256z" />
<glyph unicode="&#xf45a;" glyph-name="ion-ios-loop" horiz-adv-x="978" d="M956 448l22-22-104-106-106 106 20 22 86-82zM898 448v0 0c0-14 0-28-2-42l-32 2c2 14 2 28 2 42-2 206-170 374-376 374-136 0-262-74-328-192l-28 16c72 128 208 208 356 208 224 0 406-182 408-404v0-4zM818 264l28-16c-72-128-208-208-356-208-222 0-404 180-408 400v0 8c0 14 0 28 2 42l32-2c-2-14-2-28-2-42 0-206 170-374 376-374 136 0 262 74 328 192zM106 576l104-106-22-22-82 82-84-82-22 22z" />
<glyph unicode="&#xf462;" glyph-name="ion-ios-minus-empty" horiz-adv-x="512" d="M512 430h-512v34h512v-34z" />
<glyph unicode="&#xf489;" glyph-name="ion-ios-plus-empty" horiz-adv-x="512" d="M512 430h-240v-238h-34v238h-238v34h238v240h34v-240h240v-34z" />
<glyph unicode="&#xf49a;" glyph-name="ion-ios-refresh-empty" horiz-adv-x="512" d="M256 192c-142 0-256 114-256 256s114 256 256 256v88l192-128-192-112v112c-120 0-216-96-216-216s96-216 216-216 216 96 216 216h40c0-142-114-256-256-256z" />
<glyph unicode="&#xf49d;" glyph-name="ion-ios-reload" d="M384 832c212 0 384-172 384-384l110 106 18-18-140-136-134 136 18 18 102-104c0 196-160 356-358 356s-358-160-358-358 160-358 358-358c158 0 292 100 340 242l24-6c-52-152-194-262-364-262-212 0-384 172-384 384s172 384 384 384z" />
<glyph unicode="&#xf4a7;" glyph-name="ion-ios-settings" d="M640 752c-18 0-32-14-32-32s14-32 32-32 32 14 32 32-14 32-32 32zM640 784v0c36 0 64-28 64-64s-28-64-64-64-64 28-64 64 28 64 64 64zM640 208c-18 0-32-14-32-32s14-32 32-32 32 14 32 32-14 32-32 32zM640 240v0c36 0 64-28 64-64s-28-64-64-64-64 28-64 64 28 64 64 64zM256 480c-18 0-32-14-32-32s14-32 32-32 32 14 32 32-14 32-32 32zM256 512v0c36 0 64-28 64-64s-28-64-64-64-64 28-64 64 28 64 64 64zM350 464h546v-32h-546c0 6 2 10 2 16s-2 10-2 16zM160 448c0-6 2-10 2-16h-162v32h162c0-6-2-10-2-16zM734 192h162v-32h-162c0 6 2 10 2 16s-2 10-2 16zM544 176c0-6 2-10 2-16h-546v32h546c0-6-2-10-2-16zM734 736h162v-32h-162c0 6 2 10 2 16s-2 10-2 16zM546 736c0-6-2-10-2-16s2-10 2-16h-546v32h546z" />
<glyph unicode="&#xf4b1;" glyph-name="ion-ios-star-half" d="M280 350l-280 196h342l106 318 106-318h342l-280-196 108-318-276 198-276-198zM448 758v-488l214-152-86 244 216 150h-262z" />
<glyph unicode="&#xf4b2;" glyph-name="ion-ios-star-outline" d="M896 546l-280-196 108-318-276 198-276-198 108 318-280 196h342l106 318 106-318h342zM662 118l-86 244 216 150h-262l-82 246-82-246h-262l216-150-86-244 214 152z" />
<glyph unicode="&#xf4b3;" glyph-name="ion-ios-star" d="M896 546l-280-196 108-318-276 198-276-198 108 318-280 196h342l106 318 106-318h342z" />
<glyph unicode="&#xf4c4;" glyph-name="ion-ios-trash-outline" horiz-adv-x="576" d="M576 734v-30h-40l-48-582c0-32-26-58-58-58h-282c-32 0-58 26-58 58l-48 582h-42v30h160v40c0 32 26 58 58 58h140c32 0 58-26 58-58v-40h160zM190 774v-40h196v40c0 16-12 28-28 28h-140c-16 0-28-12-28-28zM460 124l46 580h-434l46-580v-2c0-16 14-28 30-28h282c16 0 30 12 30 28v2zM274 158v482h28v-482h-28zM416 640l-22-482h-28l20 482h30zM188 640l22-482h-28l-22 482h28z" />
<glyph unicode="&#xf4c5;" glyph-name="ion-ios-trash" horiz-adv-x="576" d="M416 734h160v-30h-40l-48-582c0-32-26-58-58-58h-282c-32 0-58 26-58 58l-48 582h-42v30h160v40c0 32 26 58 58 58h140c32 0 58-26 58-58v-40zM190 774v0-40h196v40c0 16-12 28-28 28h-140c-16 0-28-12-28-28zM182 158h28l-22 482h-28zM302 158v482h-28v-482h28zM394 158l22 482h-28l-22-482h28z" />
<glyph unicode="&#xf4c8;" glyph-name="ion-ios-unlocked-outline" horiz-adv-x="640" d="M320 384c36 0 64-28 64-64 0-30-20-54-48-62v-66h-32v66c-28 8-48 32-48 62 0 36 28 64 64 64zM320 288c18 0 32 14 32 32s-14 32-32 32-32-14-32-32 14-32 32-32zM144 512h496v-480h-640v480h112v144c0 114 94 208 208 208s208-94 208-208v-16h-32v16c0 98-78 176-176 176s-176-78-176-176v-144zM608 64v416h-576v-416h576z" />
<glyph unicode="&#xf4c9;" glyph-name="ion-ios-unlocked" horiz-adv-x="640" d="M320 352c18 0 32-14 32-32s-14-32-32-32-32 14-32 32 14 32 32 32zM144 512h496v-480h-640v480h112v144c0 114 94 208 208 208s208-94 208-208v-16h-32v16c0 98-78 176-176 176s-176-78-176-176v-144zM336 258c28 8 48 32 48 62 0 36-28 64-64 64s-64-28-64-64c0-30 20-54 48-62v-66h32v66z" />
<glyph unicode="&#xf00eb;" glyph-name="uF00EB" d="M829 836l-7 10h-610l-7-9q-55-70-86-133t-36.5-109.5-1.5-76.5 16-55q10-20 25-37t33-28.5 38.5-18 41.5-6.5h5q86 4 145 65 10-11 21.5-20.5t28-19.5 38-15.5 45.5-5.5q17 0 33 3t29 8 24 11 20.5 14 16.5 14.5 13 13.5q31-26 71-46t82-20q61 0 104 50 25 30 31.5 72t-4 88-25 86.5-36.5 80.5-31.5 56.5-16.5 27.5zM875 456q-10-11-20.5-18.5t-22.5-11-26-3.5q-27 0-59 15.5t-48.5 28-28.5 24.5v164q0 10-7 17t-17 7q-5 0-9.5-1.5t-7.5-5-5-8-2-9.5v-177q-39-53-104-53-22 0-42 6.5t-33 17.5-20 19-12 15v172q0 10-7 17t-17 7q-7 0-12.5-3t-8.5-8.5-3-12.5v-171q-4-5-8.5-10t-13-12.5-18.5-14-22.5-12.5-28.5-9.5-34-4.5h-3q-26 0-53 16t-42 47q-9 20-12 44.5t2 63 32 92.5 73 115h561q17-27 34-59t34-74 26-79 6-73-21-58zM831.5 346q-6.5 0-12-3t-9-8.5-3.5-12.5v0-174q0-9-3.5-18t-10-15.5-15.5-10.5-19-4h-495q-20 0-34 14t-14 34v174q0 4-1.5 7.5t-3.5 6.5-5 5.5-6.5 3.5-7.5 1-8-1-6.5-3.5-5-5.5-3.5-6.5-1-7.5v-178q0-25 12-46.5t33-33.5 46-12h505q38 0 64.5 27t26.5 65v178q0 7-3 12.5t-8.5 8.5-12 3z" />
<glyph unicode="&#xf0101;" glyph-name="uF0101" d="M832 836l-7 11h-610l-7-9q-55-70-86-133t-36.5-109.5-1-76.5 16.5-55q20-41 57.5-65.5t79.5-24.5h6q33 2 63.5 13t48.5 24 33 28q53-61 132-61 47 0 80.5 19t55.5 45q80-65 152-65 62 0 105 49 25 30 31.5 72t-4.5 88-25 86.5-36 80.5-31.5 56.5-16.5 26.5zM834 347q-10 0-17-7t-7-17v0-173q0-10-4-19t-10.5-15.5-15.5-10.5-18-4h-495q-20 0-34 14.5t-14 34.5v173q0 5-2 9.5t-5 7.5-7.5 5-9.5 2q-10 0-17-7t-7-17v-178q0-25 12-46t33.5-33.5 45.5-12.5h505q24 0 45.5 12.5t33.5 33.5 12 46v178q0 10-7 17t-17 7z" />
<glyph unicode="&#xf0103;" glyph-name="uF0103" d="M679 561v273q-5 2-15 6.5t-41.5 14-63.5 14-78.5 0.5-90.5-19zM704 401v421q7-3 18-8.5t40.5-27.5 54.5-47.5 51-69 38-92.5zM620 278l291 274q1-2 2.5-5.5t5.5-16 6-26.5 2.5-38-3-50.5-13.5-62.5-26-75h-265zM471 243h393q-1-2-3-7t-10.5-19-18.5-28-28.5-33-39.5-35-52-32-65-27zM343 330v-256q2-1 6-3.5t18-8.5 29.5-10.5 40.5-8.5 51-5 61 2.5 71 12.5zM115 317l199 179v-407q-1 1-4 2t-12 6-18 10.5-22.5 16-27 22.5-29 29.5-29.5 38-29 47-28 56.5zM110 346q-2 6-4.5 16.5t-7 42.5-4.5 63.5 8.5 73.5 25.5 78h274zM146 649q1 3 3.5 7.5t11.5 19.5 19.5 29.5 29 34 39.5 36.5 50 34.5 61 30.5l187-192h-401z" />
<glyph unicode="&#xf0105;" glyph-name="uF0105" d="M711 456q-14 2-18.5 8t-0.5 11l3 4q1 3 3 6.5t5 14.5 4 22-3.5 24.5-15.5 23.5q-13 14-34.5 18t-42.5 0.5-40.5-8.5-31.5-10l-12-6q-8-2-14-3t-9.5-1-5.5 2-3 4.5-0.5 7 1.5 8 2.5 11 2.5 11.5q0 15-2.5 27t-10.5 25.5-21 20.5-38 6.5-58-11.5-67-34-59.5-47-46.5-47.5-32-37.5-11-15q-31-41-46-82.5t-15-61.5v-21q5-46 27.5-82t53.5-59 73-38.5 80.5-23 81.5-10.5q53-4 110 5t110 29.5 96 55 64 78.5q11 25 14.5 47t0 39-12 31-19 24-22.5 17-22 11-18 6zM421 158q-103-5-175 40t-72 114q0 68 71.5 117.5t175.5 54.5q33 1 65-2.5t59.5-11.5 50-20.5 38.5-28.5 25-36.5 9-42.5q0-73-78-128-73-52-169-56zM393 423q-28-3-49.5-13t-34-22.5-21-28.5-12-29-4.5-26.5-0.5-18.5 0.5-7v-2q0-2 0.5-7t2-9.5 4-11 6.5-12 10-11 14-9.5q23-13 47.5-18.5t47-3.5 43 9.5 37.5 20 30 29.5q16 20 17.5 51.5t-10.5 60-45.5 46.5-82.5 12zM359 241q-13-1-23.5 3t-16.5 12-6 19q0 17 12.5 31t30.5 16q22 2 35.5-9t13.5-27-13.5-29-32.5-16zM440 311q-5-3-9.5-4t-8.5 0.5-6 5.5q-2 3-2.5 6.5t0 7 2.5 7 6 5.5q3 3 7 4t7.5 1 6-2 4.5-5q3-6 1-13.5t-8-12.5zM778 512q8 0 14.5 5.5t7.5 13.5v2q4 31-1 54.5t-15.5 36.5-24.5 22-28.5 11.5-26.5 3-20-0.5l-7-1q-9 0-16-7t-7-16q0-6 3-11.5t8.5-8.5 11.5-3q75 17 80-49l-2-30q5-19 23-22zM762 777q-48 11-113-2h-1l-2-1-1-1q-10-2-16.5-11t-6.5-20q0-9 4-17t11.5-12 16.5-4q18 2 30 7 5 0 16.5 1.5t31-3.5 39-12.5 40.5-25 35-41.5q25-57 10-109-6-17-6-32 0-7 2.5-12.5t7-9.5 10.5-6 12-2q14 0 21.5 5t10.5 23q17 53 13 96.5t-18.5 75.5-40.5 55.5-52 37-54 20.5z" />
<glyph unicode="&#xf0106;" glyph-name="uF0106" d="M664 591q13 0 30-1-20 92-108.5 153t-202.5 61q-127 0-217.5-75.5t-90.5-184.5q0-120 123-205l-31-92 108 53q6-1 16-3t16-3 14.5-2.5 15-2.5 14.5-2 16-1.5 16-0.5q7 0 14 0.5t15 0.5q-5 16-7.5 32t-2.5 32q0 100 76.5 170.5t185.5 70.5zM499 674q17 0 27.5-10.5t10.5-27.5q0-8-2.5-15.5t-7.5-12.5-12.5-7.5-15.5-2.5q-19 0-33 11t-14 27q0 8 4 15.5t10.5 12.5 15 7.5 17.5 2.5zM283 598q-4 0-8.5 0.5t-8.5 2-8 3.5-7 4.5-5.5 5.5-4.5 6.5-3 7.5-1 8q0 11 6.5 20t17 13.5 22.5 4.5q9 0 16-2.5t12-7.5 7.5-12 2.5-16q0-17-10.5-27.5t-27.5-10.5zM945 354q0 90-78 155.5t-183 65.5q-110 0-186-64.5t-76-156.5 76-156.5 186-64.5q31 0 92 15l85-46-23 76q49 37 78 82t29 94zM599 392q-8 0-15 4.5t-11.5 11.5-4.5 14.5 4.5 14.5 11.5 11.5 15 4.5q17 0 27.5-9.5t10.5-20.5q0-4-1-8t-3.5-7.5-6-6-7.5-5-9.5-3.5-10.5-1zM768 392q-7 0-14 4.5t-11.5 11.5-4.5 15q0 11 9.5 20.5t20.5 9.5q17 0 28-9.5t11-21.5-11-21-28-9z" />
</font>
</defs>
</svg>
